<mxfile host="Electron" modified="2025-04-28T01:42:17.569Z" agent="Mozilla/5.0 (Windows NT 10.0; Win64; x64) AppleWebKit/537.36 (KHTML, like Gecko) draw.io/23.1.5 Chrome/120.0.6099.109 Electron/28.1.0 Safari/537.36" etag="_FnT6vlHtIfTbvCrBP9f" version="23.1.5" type="device">
  <diagram name="Page-1" id="2SB512Xy5rw6dS17T2yn">
    <mxGraphModel dx="1900" dy="717" grid="1" gridSize="10" guides="1" tooltips="1" connect="1" arrows="1" fold="1" page="1" pageScale="1" pageWidth="850" pageHeight="1100" math="0" shadow="0">
      <root>
        <mxCell id="0" />
        <mxCell id="1" parent="0" />
        <mxCell id="QBFX9BkrajCrm4kx_A1q-1" value="&lt;font style=&quot;font-size: 20px;&quot;&gt;RasPi running&lt;br&gt;&amp;nbsp;Mosquitto MQTT Broker&lt;/font&gt;" style="rounded=1;whiteSpace=wrap;html=1;strokeWidth=4;" vertex="1" parent="1">
          <mxGeometry x="330" y="320" width="220" height="130" as="geometry" />
        </mxCell>
        <mxCell id="QBFX9BkrajCrm4kx_A1q-3" value="" style="endArrow=classic;html=1;rounded=0;entryX=1;entryY=0.5;entryDx=0;entryDy=0;strokeWidth=5;exitX=0;exitY=0.5;exitDx=0;exitDy=0;" edge="1" parent="1" source="QBFX9BkrajCrm4kx_A1q-6" target="QBFX9BkrajCrm4kx_A1q-1">
          <mxGeometry width="50" height="50" relative="1" as="geometry">
            <mxPoint x="730" y="385" as="sourcePoint" />
            <mxPoint x="730" y="330" as="targetPoint" />
          </mxGeometry>
        </mxCell>
        <mxCell id="QBFX9BkrajCrm4kx_A1q-13" value="&lt;font style=&quot;font-size: 16px;&quot;&gt;Ad-Hoc Wifi&amp;nbsp;&lt;br&gt;+ MQTT&lt;br&gt;&lt;/font&gt;" style="edgeLabel;html=1;align=center;verticalAlign=middle;resizable=0;points=[];" vertex="1" connectable="0" parent="QBFX9BkrajCrm4kx_A1q-3">
          <mxGeometry x="-0.048" y="1" relative="1" as="geometry">
            <mxPoint as="offset" />
          </mxGeometry>
        </mxCell>
        <mxCell id="QBFX9BkrajCrm4kx_A1q-4" value="" style="endArrow=classic;html=1;rounded=0;entryX=1;entryY=0.5;entryDx=0;entryDy=0;strokeWidth=5;exitX=0;exitY=0.5;exitDx=0;exitDy=0;" edge="1" parent="1" source="QBFX9BkrajCrm4kx_A1q-1" target="QBFX9BkrajCrm4kx_A1q-5">
          <mxGeometry width="50" height="50" relative="1" as="geometry">
            <mxPoint x="290" y="384.5" as="sourcePoint" />
            <mxPoint x="150" y="384.5" as="targetPoint" />
          </mxGeometry>
        </mxCell>
        <mxCell id="QBFX9BkrajCrm4kx_A1q-15" value="&lt;font style=&quot;font-size: 16px;&quot;&gt;Ethernet + MQTT&lt;br&gt;&lt;/font&gt;" style="edgeLabel;html=1;align=center;verticalAlign=middle;resizable=0;points=[];" vertex="1" connectable="0" parent="QBFX9BkrajCrm4kx_A1q-4">
          <mxGeometry x="0.0019" y="-1" relative="1" as="geometry">
            <mxPoint as="offset" />
          </mxGeometry>
        </mxCell>
        <mxCell id="QBFX9BkrajCrm4kx_A1q-5" value="&lt;font style=&quot;font-size: 20px;&quot;&gt;MQTT Client &lt;br&gt;Running on PC (acting as server)&lt;/font&gt;" style="rounded=0;whiteSpace=wrap;html=1;dashed=1;strokeWidth=4;" vertex="1" parent="1">
          <mxGeometry x="-40" y="320" width="160" height="130" as="geometry" />
        </mxCell>
        <mxCell id="QBFX9BkrajCrm4kx_A1q-6" value="&lt;span style=&quot;font-size: 20px;&quot;&gt;RasPi running on ad-hoc network&lt;/span&gt;" style="rounded=0;whiteSpace=wrap;html=1;dashed=1;strokeWidth=4;" vertex="1" parent="1">
          <mxGeometry x="750" y="320" width="160" height="130" as="geometry" />
        </mxCell>
        <mxCell id="QBFX9BkrajCrm4kx_A1q-7" value="&lt;span style=&quot;font-size: 20px;&quot;&gt;RasPi running on ad-hoc network&lt;/span&gt;" style="rounded=0;whiteSpace=wrap;html=1;dashed=1;strokeWidth=4;" vertex="1" parent="1">
          <mxGeometry x="750" y="150" width="160" height="130" as="geometry" />
        </mxCell>
        <mxCell id="QBFX9BkrajCrm4kx_A1q-8" value="&lt;span style=&quot;font-size: 20px;&quot;&gt;RasPi running on ad-hoc network&lt;/span&gt;" style="rounded=0;whiteSpace=wrap;html=1;dashed=1;strokeWidth=4;" vertex="1" parent="1">
          <mxGeometry x="750" y="500" width="160" height="130" as="geometry" />
        </mxCell>
        <mxCell id="QBFX9BkrajCrm4kx_A1q-9" value="" style="endArrow=classic;html=1;rounded=0;entryX=1;entryY=1;entryDx=0;entryDy=0;strokeWidth=5;exitX=0;exitY=0.5;exitDx=0;exitDy=0;" edge="1" parent="1" source="QBFX9BkrajCrm4kx_A1q-8" target="QBFX9BkrajCrm4kx_A1q-1">
          <mxGeometry width="50" height="50" relative="1" as="geometry">
            <mxPoint x="730" y="550" as="sourcePoint" />
            <mxPoint x="530" y="550" as="targetPoint" />
          </mxGeometry>
        </mxCell>
        <mxCell id="QBFX9BkrajCrm4kx_A1q-14" value="&lt;font style=&quot;font-size: 16px;&quot;&gt;Ad-Hoc Wifi&lt;br&gt;+ MQTT&lt;br&gt;&lt;/font&gt;" style="edgeLabel;html=1;align=center;verticalAlign=middle;resizable=0;points=[];" vertex="1" connectable="0" parent="QBFX9BkrajCrm4kx_A1q-9">
          <mxGeometry x="0.0652" y="-1" relative="1" as="geometry">
            <mxPoint as="offset" />
          </mxGeometry>
        </mxCell>
        <mxCell id="QBFX9BkrajCrm4kx_A1q-10" value="" style="endArrow=classic;html=1;rounded=0;entryX=1;entryY=0;entryDx=0;entryDy=0;strokeWidth=5;exitX=0;exitY=0.5;exitDx=0;exitDy=0;" edge="1" parent="1" source="QBFX9BkrajCrm4kx_A1q-7" target="QBFX9BkrajCrm4kx_A1q-1">
          <mxGeometry width="50" height="50" relative="1" as="geometry">
            <mxPoint x="740" y="240" as="sourcePoint" />
            <mxPoint x="540" y="240" as="targetPoint" />
          </mxGeometry>
        </mxCell>
        <mxCell id="QBFX9BkrajCrm4kx_A1q-11" value="&lt;font style=&quot;font-size: 16px;&quot;&gt;Ad-Hoc Wifi&lt;br&gt;+ MQTT&lt;br&gt;&lt;/font&gt;" style="edgeLabel;html=1;align=center;verticalAlign=middle;resizable=0;points=[];" vertex="1" connectable="0" parent="QBFX9BkrajCrm4kx_A1q-10">
          <mxGeometry x="0.0106" relative="1" as="geometry">
            <mxPoint as="offset" />
          </mxGeometry>
        </mxCell>
      </root>
    </mxGraphModel>
  </diagram>
</mxfile>
